# xmcd CD database file
#
# Track frame offsets:
#	150
#	1662
#	10970
#	17732
#	29005
#	35252
#	41290
#	48065
#	53895
#	61125
#	66037
#	73232
#	81460
#	84952
#	93602
#	100070
#	103430
#	110850
#	117570
#	125342
#	130622
#	140995
#	149012
#	153927
#	158742
#	163797
#	168177
#	173985
#	181045
#	186877
#	191650
#	196212
#	205097
#	209730
#	213567
#	217615
#	223637
#	227802
#	233332
#	241522
#
# Disc length: 3230 seconds
#
# Revision: 1
# Processed by: cddbd v1.5.2PL0 Copyright (c) Steve Scherf et al.
# Submitted via: CDex 1.50beta10
#
DISCID=350c9c28
DTITLE=Gene Autry - The Gene Autry Show (Episodes 28-64)
DYEAR=1900
DGENRE=Country
TTITLE0=Flying A Logo
TTITLE1=Crime Will Never Pay
TTITLE2=Let's Go Roamin' Around the Range
TTITLE3=Roll On, Little Doggies (w Pat Buttram)
TTITLE4=As Long As I Have My Horse
TTITLE5=Silver Spurs On The Golden Stairs
TTITLE6=When You And I Were Young, Maggie
TTITLE7=I Want To Be Sure
TTITLE8=Under Fiesta Stars
TTITLE9=Rhythm Of The Hoofbeats
TTITLE10='Neath The Blue Montana Skies
TTITLE11=Ages And Ages Ago
TTITLE12=Back In The Saddle Again (Pat Buttram)
TTITLE13=Down In The Valley
TTITLE14=Swing Low Sweet Chariot (w Gloria Winters)
TTITLE15=Nobody Knows The Trouble I've Seen
TTITLE16=Ridin' Down The Canyon (w Gene Autry, on phonograph)
TTITLE17=Yellow Rose of Texas
TTITLE18=Ridin' Double
TTITLE19=Texas Plains
TTITLE20=Home On The Range
TTITLE21=Pretty Mary
TTITLE22=Mexicali Rose
TTITLE23=I'm Beginning To Care
TTITLE24=After Tomorrow
TTITLE25=Billy Boy
TTITLE26=Old Nevada Moon
TTITLE27=Rainbow On The Rio Colorado
TTITLE28=Back In The Saddle Again
TTITLE29=Dixie Cannonball
TTITLE30=Westard Ho!
TTITLE31=Love, Burning Love
TTITLE32=I'm A Cow Poke Pokin' Along
TTITLE33=I'll Go Ridin' Down That Old Texas Trail
TTITLE34=If You'll Let Me Be Your Little Sweetheart
TTITLE35=Guns and Guitars
TTITLE36=I Only Want A Buddy Not a Sweetheart
TTITLE37=Gone With The West
TTITLE38=Onteora
TTITLE39=End Credit
EXTD=
EXTT0=
EXTT1=
EXTT2=
EXTT3=
EXTT4=
EXTT5=
EXTT6=
EXTT7=
EXTT8=
EXTT9=
EXTT10=
EXTT11=
EXTT12=
EXTT13=
EXTT14=
EXTT15=
EXTT16=
EXTT17=
EXTT18=
EXTT19=
EXTT20=
EXTT21=
EXTT22=
EXTT23=
EXTT24=
EXTT25=
EXTT26=
EXTT27=
EXTT28=
EXTT29=
EXTT30=
EXTT31=
EXTT32=
EXTT33=
EXTT34=
EXTT35=
EXTT36=
EXTT37=
EXTT38=
EXTT39=
PLAYORDER=
